{"glyphs":{":":{"x_min":0,"x_max":0,"ha":0,"o":""},"$":{"x_min":0,"x_max":0,"ha":0,"o":""},"?":{"x_min":0,"x_max":0,"ha":0,"o":""},"<":{"x_min":0,"x_max":0,"ha":0,"o":""},"'":{"x_min":0,"x_max":244,"ha":244,"o":"m 129 781 l 220 781 l 220 781 q 122 542 119 535 l 27 535 l 27 536 q 32 549 128 781 z"},"=":{"x_min":0,"x_max":0,"ha":0,"o":""},"a":{"x_min":0,"x_max":584,"ha":584,"o":"m 273 512 l 277 512 q 315 512 351 487 q 374 469 382 451 q 383 451 389 438 q 391 440 410 489 q 412 493 412 493 l 569 493 q 570 493 570 492 q 466 243 457 218 q 445 184 445 166 l 445 163 q 445 143 459 137 q 463 136 468 135 q 498 135 562 215 q 586 246 632 308 l 633 308 q 648 302 655 290 q 659 281 659 278 q 621 218 582 162 q 556 124 515 78 q 443 0 378 0 q 331 0 299 28 q 269 57 269 105 q 269 116 270 125 q 170 0 92 0 q 38 0 6 55 q -15 95 -15 144 l -15 154 q -15 197 4 255 q 17 292 34 322 q 48 348 70 378 q 85 398 114 429 q 150 463 172 477 q 229 512 273 512 z m 153 178 l 153 177 q 153 146 174 135 q 178 135 180 135 q 216 135 306 241 q 311 248 313 254 q 315 258 365 379 q 349 403 323 403 l 323 403 q 278 403 222 335 q 170 269 156 204 q 153 191 153 178 z"},"L":{"x_min":0,"x_max":830,"ha":830,"o":"m 360 858 q 376 848 402 824 q 434 791 446 773 q 488 714 500 667 q 487 653 481 635 q 476 617 476 601 q 476 552 523 520 q 550 573 591 630 q 641 698 694 732 q 760 773 835 773 l 847 773 q 881 773 917 758 q 932 750 947 738 q 996 695 996 628 l 996 627 q 996 566 952 507 q 930 480 902 458 q 793 377 615 377 q 614 375 597 333 q 597 332 597 331 q 558 236 514 156 q 587 122 705 53 q 830 -18 901 -43 q 935 -56 976 -66 q 998 -72 1042 -78 q 1049 -79 1062 -79 l 1062 -80 q 1053 -110 1020 -150 q 996 -178 973 -196 q 928 -232 882 -242 l 865 -244 q 831 -235 803 -223 q 769 -207 729 -181 q 688 -154 633 -106 q 612 -88 514 9 q 471 50 457 61 q 437 30 403 -10 q 295 -136 184 -136 q 80 -136 29 -70 q 19 -56 11 -38 q 0 -9 0 16 l 0 22 q 0 81 42 135 q 60 155 74 167 q 89 179 109 189 q 172 223 251 223 l 254 223 q 304 223 363 210 q 398 258 424 312 q 438 340 458 387 l 470 413 q 445 421 421 434 q 394 448 362 473 q 332 501 319 518 q 258 595 258 680 q 258 766 321 829 q 346 851 359 858 z m 660 483 l 663 483 q 723 483 793 514 q 864 548 864 584 q 864 602 843 617 q 831 625 814 625 q 774 625 725 580 q 696 549 689 536 q 680 523 670 506 q 664 493 660 483 z m 167 98 l 167 96 q 167 84 189 81 l 198 81 q 240 81 302 141 l 302 142 q 285 145 265 145 q 209 145 176 115 q 167 104 167 98 z"},"3":{"x_min":0,"x_max":0,"ha":0,"o":""},";":{"x_min":0,"x_max":0,"ha":0,"o":""},"J":{"x_min":0,"x_max":830,"ha":830,"o":"m 672 782 q 745 782 826 756 q 879 741 945 729 q 951 729 951 727 l 812 391 q 744 222 672 108 q 641 59 597 4 q 438 -181 266 -181 q 203 -181 143 -150 q 124 -141 102 -125 q 89 -114 75 -100 q 48 -72 36 -50 q 0 11 0 74 l 0 81 q 0 84 0 92 q 37 116 85 134 q 119 148 181 161 q 232 170 247 170 q 250 170 271 171 l 276 151 q 287 113 309 99 q 325 88 343 88 l 348 88 q 383 88 436 125 q 489 165 543 235 q 585 289 623 354 q 684 458 738 597 q 740 600 764 658 q 728 669 697 669 l 690 669 q 635 669 584 636 q 572 627 557 613 q 515 565 515 510 l 515 508 q 515 474 532 438 q 523 417 490 378 q 458 346 449 340 q 414 311 390 298 q 367 286 354 281 l 354 281 q 299 375 299 464 l 299 469 q 299 554 348 628 q 360 647 384 672 q 414 701 431 711 q 459 730 488 744 q 516 757 566 770 q 622 782 672 782 z"},"V":{"x_min":0,"x_max":928,"ha":928,"o":"m 372 782 q 445 782 525 756 q 581 740 646 729 q 651 728 651 727 q 629 676 609 583 q 599 531 588 432 q 582 361 573 221 q 566 123 558 82 l 558 81 l 558 81 q 630 184 668 249 q 742 370 784 480 q 832 604 832 698 l 832 704 q 832 716 831 727 q 847 750 896 767 q 942 781 980 781 q 996 781 1005 779 q 1005 767 1005 761 l 1005 756 q 1005 630 915 453 q 881 388 834 321 q 815 292 669 73 q 611 -15 537 -128 l 536 -128 q 500 -128 447 -103 q 428 -93 405 -77 q 393 -68 379 -53 q 358 -29 356 -12 l 356 -9 q 371 16 383 50 q 393 76 403 132 q 412 173 419 274 q 429 442 437 509 q 447 582 459 627 q 465 645 469 657 q 431 669 398 669 l 391 669 q 332 669 280 633 q 253 612 239 588 q 215 550 215 513 l 215 505 q 215 474 232 438 l 232 438 q 222 415 189 377 q 157 345 148 338 q 124 318 106 308 q 77 289 54 281 q 34 314 17 362 q 0 416 0 463 l 0 470 q 0 553 49 628 q 61 647 84 671 q 110 697 124 706 q 149 725 181 740 q 208 753 243 764 q 309 782 372 782 z"},"\"":{"x_min":0,"x_max":488,"ha":488,"o":"m 167 781 l 258 781 q 259 781 259 781 l 157 536 l 157 535 l 65 535 q 65 536 166 778 q 167 781 167 781 z m 417 781 l 417 781 q 320 547 315 535 l 224 535 l 224 536 l 315 759 q 316 760 325 781 z"},"7":{"x_min":0,"x_max":0,"ha":0,"o":""},"S":{"x_min":0,"x_max":904,"ha":904,"o":"m 900 781 q 961 781 1004 738 q 1033 703 1033 667 l 1033 661 q 1033 625 1004 596 q 980 574 938 564 q 910 558 868 558 l 866 558 q 848 558 812 560 q 803 521 803 471 q 803 423 815 341 q 823 276 823 222 q 823 27 693 -66 q 609 -128 512 -128 q 390 -128 315 -45 q 299 -26 290 -11 q 252 55 252 131 q 252 225 308 304 q 320 319 337 336 q 362 360 380 371 q 437 409 489 409 q 517 409 540 392 q 570 366 570 323 l 570 317 l 569 317 q 553 321 538 321 l 535 321 q 494 321 465 291 q 437 259 437 215 q 437 176 465 145 q 496 117 537 117 q 585 117 627 160 q 677 221 677 302 q 677 333 670 460 q 670 479 670 496 l 670 503 q 670 540 674 569 l 673 570 q 636 571 607 572 q 454 572 345 517 q 320 503 295 483 q 226 422 226 339 q 226 325 229 309 q 203 287 185 276 q 145 250 100 235 q 81 228 51 222 q 30 218 9 216 q 8 216 5 237 q 0 270 0 303 q 0 444 103 542 q 133 569 155 583 q 192 606 236 623 q 353 667 501 667 q 584 667 696 653 l 696 654 q 696 657 716 690 q 725 704 743 723 q 769 748 799 761 q 845 781 896 781 l 896 781 q 898 781 900 781 z m 849 634 l 850 634 q 880 632 894 632 q 939 632 950 646 q 954 650 954 653 l 954 655 q 954 666 924 667 l 918 667 q 882 667 851 636 z"},"}":{"x_min":0,"x_max":0,"ha":0,"o":""},"Z":{"x_min":0,"x_max":879,"ha":879,"o":"m 551 782 q 619 782 744 764 q 795 758 822 758 q 858 758 885 766 q 910 781 934 781 q 978 781 1026 745 q 1057 720 1065 697 q 979 670 896 598 q 876 582 844 549 q 792 495 754 443 q 692 361 621 255 q 576 190 542 144 q 586 117 653 70 q 725 21 772 3 q 804 -10 831 -17 q 857 -23 895 -28 l 921 -30 q 913 -58 882 -97 q 853 -132 831 -148 q 805 -167 787 -176 q 769 -185 751 -190 q 730 -195 723 -195 q 699 -186 672 -169 q 651 -156 624 -132 q 590 -100 580 -86 q 544 -45 503 8 q 482 34 467 51 q 420 -2 379 -37 q 334 -73 311 -87 q 247 -128 185 -128 q 79 -128 27 -61 q 0 -20 0 23 l 0 29 q 0 88 42 143 q 60 163 74 174 q 89 186 109 197 q 172 230 251 230 l 254 230 q 319 230 395 209 q 417 228 463 275 q 463 275 476 289 q 550 369 607 444 q 652 501 731 606 q 759 642 787 675 l 787 675 q 766 673 750 673 q 727 673 638 680 q 619 680 614 680 q 508 680 440 619 q 392 570 392 508 q 392 474 409 438 q 401 421 390 407 q 381 392 347 358 q 318 332 297 317 q 261 292 236 283 q 232 281 230 281 q 177 375 177 467 q 177 573 248 657 q 272 685 286 694 q 317 719 338 730 q 362 743 396 756 q 472 782 551 782 z m 204 125 l 204 124 q 204 117 220 115 l 228 115 q 261 115 315 148 q 295 153 275 153 q 234 153 210 135 q 204 129 204 125 z"},"x":{"x_min":0,"x_max":559,"ha":559,"o":"m 46 233 q -12 146 -86 80 l -86 80 q -91 80 -98 95 q -108 112 -106 129 q -62 161 3 248 q 21 271 34 289 q 62 329 99 395 q 118 430 152 493 l 190 493 q 241 493 276 436 q 288 415 295 395 q 304 375 313 338 q 316 342 423 473 q 439 493 440 493 l 541 493 l 541 492 l 336 242 q 351 180 366 151 q 385 115 414 115 q 466 115 586 280 q 606 307 607 308 q 623 303 629 291 q 633 282 633 278 q 585 201 538 136 q 516 107 479 67 q 414 0 354 0 q 284 0 252 100 q 247 115 244 128 l 243 128 q 177 46 159 25 q 144 10 133 6 q 118 0 81 0 q 34 0 12 0 q 36 18 70 48 q 99 76 114 94 l 186 181 l 221 225 q 207 282 192 313 q 186 325 177 337 q 155 362 126 362 q 112 337 93 307 q 74 276 46 233 z"},")":{"x_min":0,"x_max":0,"ha":0,"o":""},"&":{"x_min":0,"x_max":781,"ha":781,"o":"m 649 781 q 717 781 754 749 q 775 728 775 700 q 775 659 734 626 q 687 594 627 594 l 621 594 q 590 594 547 604 l 547 604 q 552 581 564 567 q 580 551 588 548 q 601 541 615 537 q 638 532 646 532 l 646 531 l 646 531 q 646 513 616 480 q 595 461 583 458 q 571 459 566 459 q 485 459 419 389 q 391 355 381 333 q 375 319 369 300 q 364 279 364 265 l 364 259 q 364 218 390 190 q 415 167 449 167 l 453 167 q 524 167 566 229 q 578 248 584 266 q 592 286 595 312 l 595 316 l 595 316 q 570 318 553 318 q 485 318 467 282 q 464 277 462 265 l 461 265 q 422 281 422 313 q 422 345 460 370 q 501 395 563 395 l 564 395 q 604 395 674 381 q 724 372 762 372 l 770 372 q 831 372 850 407 q 854 415 856 426 q 863 423 875 416 q 896 399 896 377 q 896 347 860 322 q 818 295 754 295 q 718 295 662 306 l 662 305 q 669 282 669 257 q 669 194 631 128 q 620 110 604 91 q 578 62 563 52 q 535 31 512 22 q 458 0 401 0 q 318 0 260 45 q 240 63 233 73 q 193 128 193 205 q 193 293 246 378 q 257 397 282 426 q 312 457 321 463 q 344 481 368 495 q 394 510 424 521 q 451 532 480 539 q 482 539 489 541 q 461 575 461 619 l 462 631 l 374 666 q 344 675 319 675 q 259 675 218 631 q 185 593 185 547 q 185 518 200 487 q 194 474 174 448 q 166 437 140 412 q 103 379 77 366 q 61 356 46 352 q 0 432 0 507 l 0 516 q 0 586 42 651 q 54 668 77 691 q 98 712 116 723 q 192 774 274 774 q 353 774 443 727 q 474 712 490 706 l 490 706 q 496 715 515 733 q 531 748 545 755 q 593 781 649 781 z m 559 679 q 608 663 639 663 q 686 663 700 694 q 701 697 701 700 l 701 700 q 701 718 667 726 q 656 728 648 728 q 608 728 577 702 q 562 687 559 679 z"},"_":{"x_min":0,"x_max":0,"ha":0,"o":""},"v":{"x_min":0,"x_max":415,"ha":415,"o":"m 373 493 q 374 493 375 493 l 375 493 q 400 493 409 467 q 412 457 412 448 q 412 407 372 327 q 382 308 408 299 q 415 297 421 297 q 442 297 459 312 q 464 312 473 295 q 475 289 475 285 l 475 282 q 475 277 467 271 q 454 259 435 254 q 421 250 407 250 l 406 250 q 373 250 342 268 l 342 268 q 310 211 258 141 q 232 107 200 71 q 132 0 70 0 q 21 0 -9 27 q -41 57 -41 105 q -41 151 -13 212 q 102 490 103 493 l 261 493 q 258 484 153 232 q 136 188 136 165 q 136 145 147 138 q 153 135 159 135 q 191 135 259 223 q 289 264 307 299 q 280 333 280 368 l 280 373 q 280 410 306 453 q 313 463 327 476 q 349 493 370 493 l 372 493 q 373 493 373 493 z"},"O":{"x_min":0,"x_max":830,"ha":830,"o":"m 481 781 q 595 781 682 709 q 791 617 791 451 q 791 352 746 236 q 719 169 678 104 q 654 67 618 26 q 587 -7 568 -22 q 443 -128 299 -128 q 245 -128 194 -96 q 107 -38 107 98 l 107 100 q 107 134 112 168 q 106 168 81 177 q 32 200 12 251 q 0 284 0 325 l 0 328 q 0 413 53 514 q 74 552 107 596 q 124 616 152 645 q 189 679 212 695 q 336 781 481 781 z m 139 280 l 139 280 l 139 280 q 150 314 166 349 q 193 408 238 473 q 259 502 288 534 q 322 570 337 583 q 366 607 386 619 q 433 646 466 646 l 470 646 q 525 646 553 583 q 553 582 553 581 q 518 568 481 538 q 475 534 443 502 l 421 476 q 388 433 366 394 q 320 313 278 186 q 250 97 250 40 l 250 39 q 250 -21 281 -38 q 291 -43 303 -43 q 351 -43 418 24 q 451 57 474 89 q 522 159 554 229 q 588 303 605 363 q 628 446 628 512 q 628 642 549 680 q 521 691 492 691 q 389 691 282 583 q 282 583 276 577 q 242 539 225 512 q 196 470 176 425 q 161 392 147 338 q 139 294 139 280 z"},"(":{"x_min":0,"x_max":0,"ha":0,"o":""},"C":{"x_min":0,"x_max":771,"ha":771,"o":"m 775 781 q 862 781 892 734 q 903 714 903 690 q 903 632 844 594 q 826 583 808 577 q 768 564 731 564 l 722 564 q 669 564 587 588 q 587 588 583 589 q 538 537 520 508 q 484 455 458 391 q 428 310 428 246 l 428 237 q 428 189 447 148 q 455 131 472 113 q 501 88 536 88 l 542 88 q 602 88 685 155 q 734 196 763 234 q 787 263 819 308 l 819 308 q 826 308 836 298 q 845 288 845 278 q 807 216 745 137 q 723 110 683 67 q 637 21 622 11 q 518 -76 436 -76 q 363 -76 312 -34 q 239 29 239 155 q 239 271 300 404 q 325 457 367 518 q 390 550 436 600 q 456 619 471 632 q 418 654 396 655 q 382 657 371 657 q 302 657 254 607 q 215 563 215 508 q 215 474 232 438 l 232 438 q 222 416 195 384 q 165 352 151 341 q 99 297 54 281 q 36 311 19 355 q 0 413 0 462 l 0 471 q 0 545 41 616 q 100 711 213 754 q 265 772 316 772 l 323 772 q 410 772 516 717 q 557 698 558 698 q 686 781 775 781 z m 658 659 l 658 659 q 710 643 745 643 l 746 643 q 798 643 816 681 q 817 685 817 687 l 817 688 q 817 705 784 708 q 778 708 777 708 q 730 708 668 667 q 658 660 658 659 z"},"W":{"x_min":0,"x_max":1148,"ha":1148,"o":"m 372 782 q 441 782 516 759 q 562 745 626 732 l 651 728 l 651 727 q 608 623 508 387 q 450 249 404 139 l 404 139 q 452 188 479 220 q 551 306 621 400 q 671 470 738 564 q 763 640 791 684 q 798 696 810 709 l 810 709 q 848 709 893 683 q 926 661 937 632 q 909 569 882 460 q 862 375 836 208 q 826 147 813 95 q 816 99 839 131 q 887 202 917 253 q 1078 525 1078 699 l 1078 702 q 1078 715 1077 727 q 1083 737 1099 748 q 1116 757 1136 765 q 1186 781 1227 781 q 1241 781 1251 779 q 1251 766 1251 760 l 1251 756 q 1251 627 1158 446 q 1126 388 1093 340 q 1084 327 947 120 q 867 -1 783 -128 l 782 -128 q 748 -128 696 -104 q 672 -92 653 -79 q 614 -50 604 -18 q 602 -12 602 -10 q 613 11 626 58 q 644 123 675 295 q 676 298 686 351 l 685 351 q 642 289 597 230 q 538 151 454 53 q 411 4 368 -40 q 319 -87 304 -99 q 279 -119 264 -126 q 261 -128 261 -128 q 215 -128 152 -92 q 135 -82 111 -61 q 85 -34 85 -13 q 113 14 124 28 q 163 76 194 123 q 270 236 330 353 q 372 434 407 521 q 408 522 464 658 l 464 658 q 428 669 397 669 l 390 669 q 332 669 280 633 q 258 616 242 594 q 215 553 215 509 l 215 509 q 215 473 232 438 q 222 419 206 396 q 191 379 167 354 q 128 321 107 309 q 85 294 69 288 q 60 283 53 281 q 0 375 0 464 l 0 468 q 0 539 34 605 q 87 701 200 749 q 283 782 372 782 z"},"A":{"x_min":0,"x_max":977,"ha":977,"o":"m 583 782 q 653 782 794 762 q 851 755 884 755 l 888 755 q 939 755 968 771 q 991 781 1011 781 q 1045 781 1091 753 q 1132 726 1143 697 q 1123 688 1105 672 q 1090 658 1078 643 q 1049 607 1033 581 q 967 476 907 308 q 840 116 840 11 l 840 5 q 840 -20 847 -44 l 847 -44 q 837 -72 779 -103 q 726 -128 691 -128 q 689 -121 685 -94 q 681 -63 681 -35 q 681 70 727 208 l 726 208 q 661 206 623 206 q 604 206 585 207 q 542 154 466 75 q 410 19 380 -6 q 345 -36 312 -60 q 267 -90 237 -105 q 219 -114 189 -126 q 185 -128 176 -128 q 139 -128 82 -89 q 20 -42 0 12 q 34 21 58 28 q 122 49 176 77 q 213 96 259 124 q 310 156 374 207 q 410 236 415 240 l 415 241 q 398 248 381 259 q 374 264 364 272 q 372 286 385 302 q 401 320 411 328 q 432 344 442 349 l 443 349 q 458 338 484 328 q 496 324 505 321 q 585 400 623 440 l 786 615 q 813 644 841 671 l 839 671 q 818 670 811 670 q 786 670 692 677 q 670 679 651 679 q 523 679 459 604 q 444 584 438 568 q 425 539 425 513 l 425 506 q 425 474 442 438 l 442 438 q 431 415 398 377 q 366 344 358 339 q 310 298 264 281 q 256 293 244 318 q 209 394 209 462 l 209 470 q 209 559 264 637 q 277 654 297 675 q 297 675 305 683 q 333 707 350 717 q 385 740 426 755 q 501 782 583 782 z m 661 299 q 697 296 757 294 q 757 293 758 293 q 809 417 876 536 q 898 576 932 632 l 932 632 q 887 584 840 526 q 800 476 671 311 q 670 311 661 299 z"},"f":{"x_min":0,"x_max":364,"ha":364,"o":"m 357 675 q 359 674 360 674 l 362 674 q 426 674 464 628 q 487 597 487 562 l 486 561 l 402 560 q 402 575 384 582 q 381 583 375 583 q 304 583 210 367 q 173 279 173 278 l 311 278 q 311 275 280 208 l 144 208 q 58 -1 31 -62 q -13 -160 -48 -212 q -90 -274 -125 -288 l -127 -288 q -161 -288 -209 -258 q -221 -250 -236 -235 q -255 -214 -257 -204 l -257 -203 q -210 -180 -151 -94 q -116 -41 -97 10 q 33 322 55 374 q 98 468 134 524 q 151 553 181 588 q 209 618 217 623 q 261 658 305 668 q 331 674 352 674 l 355 674 q 356 674 357 675 z"},"Q":{"x_min":0,"x_max":655,"ha":655,"o":"m 371 781 q 512 781 586 683 q 638 608 638 505 q 638 378 563 252 q 543 219 509 177 q 478 143 454 122 q 428 100 405 85 l 405 85 q 437 57 492 5 q 540 -36 558 -48 q 590 -72 625 -88 q 649 -100 684 -111 q 695 -114 695 -115 q 690 -126 678 -144 q 655 -174 625 -195 q 570 -233 511 -233 q 450 -207 382 -100 l 329 -18 q 314 2 298 23 q 298 23 293 29 q 210 0 123 0 q 49 0 12 42 q -6 66 -6 90 l -6 95 q -6 127 24 158 q 68 198 146 198 q 210 198 281 168 q 299 159 311 152 q 345 185 350 193 q 380 229 402 264 q 432 313 454 368 q 493 468 493 555 q 493 644 452 687 q 428 710 393 710 q 352 710 300 675 q 290 667 272 649 q 243 616 229 589 q 181 501 181 417 q 181 354 208 310 l 208 309 q 200 292 168 270 q 139 251 104 238 q 62 223 33 223 q 21 246 13 271 q 1 312 1 369 q 1 477 58 581 q 72 607 95 638 q 107 655 140 687 q 244 781 371 781 z m 63 92 q 63 84 81 76 q 97 70 122 70 q 171 70 221 92 q 175 123 125 123 q 82 123 65 100 q 63 96 63 92 z"},"w":{"x_min":0,"x_max":707,"ha":707,"o":"m 666 493 q 667 493 667 493 l 667 493 q 693 493 702 467 q 705 457 705 448 q 705 407 665 327 q 675 308 701 299 q 707 297 714 297 q 734 297 752 312 q 757 312 766 294 q 768 289 768 285 l 768 283 q 768 277 760 271 q 737 250 700 250 l 699 250 q 666 250 634 268 l 634 268 q 604 213 554 146 q 535 120 517 99 q 479 55 451 34 q 406 0 363 0 q 299 0 268 46 q 252 72 252 105 q 252 120 255 136 q 237 113 224 97 q 211 82 181 52 q 124 0 70 0 q 18 0 -14 33 q -40 62 -40 105 l -40 106 q -40 150 -14 209 l 104 493 l 104 493 l 262 493 l 262 493 q 159 244 148 215 q 137 182 137 167 l 137 161 q 137 143 152 137 q 157 135 161 135 q 194 135 275 241 q 309 286 313 293 l 396 493 l 554 493 q 552 488 476 302 q 436 208 436 202 q 429 180 429 164 q 429 143 444 137 q 449 135 452 135 q 484 135 552 223 q 580 262 600 299 q 573 334 573 368 l 573 373 q 573 406 595 446 q 602 458 618 474 q 640 493 663 493 l 665 493 q 666 493 666 493 z"},"-":{"x_min":0,"x_max":537,"ha":537,"o":"m 543 434 l 544 433 l 509 348 l 508 348 l 0 348 q 0 348 0 349 l 35 434 z"},"E":{"x_min":0,"x_max":825,"ha":825,"o":"m 773 781 q 831 781 876 753 q 913 726 913 692 l 913 687 q 913 661 892 631 q 878 614 865 604 q 847 591 831 584 q 783 564 736 564 l 727 564 q 691 564 642 575 l 642 575 q 645 551 660 530 q 674 515 683 511 q 691 505 718 494 q 719 493 719 493 l 719 489 q 719 469 696 429 q 688 417 676 406 l 675 405 l 656 406 q 582 406 513 353 q 500 344 473 315 q 410 241 410 169 l 410 167 q 410 115 445 80 q 474 56 517 56 l 518 56 q 661 56 807 224 q 849 273 875 308 q 875 308 875 308 q 882 308 893 298 q 899 288 899 278 q 856 214 823 167 q 780 106 735 54 q 715 31 677 -6 q 677 -7 661 -21 q 637 -42 618 -57 q 519 -128 420 -128 q 320 -128 261 -65 q 235 -37 221 2 q 206 47 206 88 q 207 90 207 93 l 207 96 q 207 176 251 266 q 265 291 285 320 q 298 339 323 366 q 349 392 362 403 q 390 425 417 441 q 451 462 486 476 q 520 489 567 500 q 568 500 571 500 q 543 537 543 585 q 543 592 544 606 l 544 606 l 446 645 q 412 657 380 657 q 312 657 262 608 q 218 561 218 504 l 218 499 q 218 471 231 438 l 231 438 q 222 421 206 401 q 198 390 165 357 q 129 327 102 309 q 75 292 48 282 q 46 281 45 281 q 0 368 0 447 l 0 457 q 0 536 45 611 q 57 631 82 659 q 111 689 122 696 q 156 722 189 738 q 260 772 331 772 l 337 772 q 424 772 529 717 q 562 701 581 693 q 587 702 611 725 q 679 781 773 781 z m 660 662 q 714 643 755 643 q 799 643 821 672 q 827 680 827 688 q 827 708 791 718 q 778 721 765 721 q 726 721 691 697 q 672 682 666 671 z"},"s":{"x_min":0,"x_max":358,"ha":358,"o":"m 224 506 l 225 506 q 264 506 289 476 q 289 473 289 469 q 289 459 280 448 l 279 448 q 257 448 244 421 q 239 410 239 397 l 239 395 q 239 372 256 344 q 298 270 298 208 l 298 206 q 298 195 297 188 q 339 233 388 296 q 396 307 396 308 l 397 308 q 415 302 421 290 q 425 281 425 278 l 390 228 q 354 174 302 113 q 264 70 240 52 q 219 34 203 25 q 179 12 156 4 q 124 -6 87 -6 q 21 -6 -29 42 q -64 77 -64 136 q -65 195 -27 235 q -5 256 20 266 q 51 313 69 344 q 89 377 122 437 q 130 451 146 471 q 165 490 175 494 q 199 506 224 506 z m 71 272 l 71 272 q 87 269 99 259 q 113 246 113 231 l 113 230 q 113 226 109 218 q 103 210 100 210 q 94 214 87 214 q 71 214 58 196 q 53 188 53 178 q 53 151 77 139 q 85 135 95 135 q 115 135 139 153 q 155 167 161 178 q 176 203 176 228 q 176 257 162 281 q 148 304 142 318 q 131 341 125 361 q 99 314 71 272 z"},">":{"x_min":0,"x_max":0,"ha":0,"o":""},"l":{"x_min":0,"x_max":277,"ha":277,"o":"m 288 781 q 324 781 372 750 q 408 726 419 697 q 371 672 314 588 q 289 551 271 511 q 262 493 201 344 q 159 245 147 212 q 137 182 137 167 l 137 162 q 137 145 150 137 q 156 135 161 135 q 195 135 278 246 q 287 257 325 308 l 325 308 q 340 303 347 290 q 351 280 351 278 q 314 219 271 157 q 247 123 211 83 q 184 54 171 43 q 120 0 70 0 q 15 0 -17 37 q -40 65 -40 104 l -40 107 q -40 153 -10 218 q -10 219 84 445 q 128 554 166 629 q 188 672 216 714 q 255 769 288 781 z"},"8":{"x_min":0,"x_max":0,"ha":0,"o":""},"\\":{"x_min":0,"x_max":0,"ha":0,"o":""},"e":{"x_min":0,"x_max":384,"ha":384,"o":"m 269 494 q 335 494 356 440 q 362 422 362 401 q 362 344 324 279 q 312 262 292 240 q 252 202 214 202 q 186 202 161 226 q 153 199 153 177 l 153 173 q 153 142 173 124 q 187 115 204 115 q 245 115 293 160 q 314 181 346 221 q 381 267 412 308 l 412 308 q 427 303 434 291 q 438 282 438 278 q 393 206 347 143 q 320 106 286 69 q 252 37 239 29 q 226 20 210 12 q 165 -9 122 -9 l 121 -9 q 69 -9 29 24 q 12 42 5 57 q -15 96 -15 145 l -15 146 q -15 146 -15 146 l -15 148 l -15 152 q -15 207 10 273 q 22 301 38 330 q 54 355 79 386 q 107 418 125 431 q 149 451 168 462 q 224 494 269 494 z m 183 277 l 183 276 q 188 274 192 274 l 193 274 q 221 274 253 330 q 271 362 271 379 q 271 385 267 385 q 257 385 220 336 q 194 299 183 277 z"},"b":{"x_min":0,"x_max":538,"ha":538,"o":"m 288 781 q 323 781 371 751 q 407 727 418 697 q 404 690 380 669 q 353 643 344 630 q 313 591 292 553 q 272 518 261 492 q 259 486 216 381 q 236 407 259 432 q 336 512 398 512 l 399 512 q 454 512 485 456 q 505 415 505 370 l 505 359 q 505 294 469 214 q 452 180 426 142 q 411 120 383 90 q 350 58 330 44 q 267 0 215 0 q 173 0 137 28 q 118 45 112 56 q 104 67 98 86 q 98 87 96 92 l 96 92 q 61 5 58 0 l -100 0 l -101 0 q 49 362 52 369 q 114 518 137 570 q 164 628 194 682 q 245 765 288 781 z m 128 169 q 142 131 175 131 l 176 131 q 220 131 275 197 q 301 230 313 255 q 345 316 345 356 q 345 387 326 398 q 322 399 318 399 q 287 399 211 314 q 178 276 163 253 q 129 172 128 169 z"},"%":{"x_min":0,"x_max":0,"ha":0,"o":""},"m":{"x_min":0,"x_max":865,"ha":865,"o":"m 261 493 q 262 493 262 492 q 209 367 208 364 q 229 391 254 418 q 324 493 387 493 l 390 493 q 447 493 479 452 q 498 424 498 387 q 498 374 495 356 q 518 385 546 417 q 579 450 589 457 q 635 493 679 493 l 683 493 q 727 493 758 467 q 791 437 791 389 l 791 386 q 791 341 762 277 q 742 231 732 201 q 726 177 726 165 q 726 142 741 137 q 746 135 749 135 q 783 135 861 239 q 881 264 914 308 l 914 308 q 929 303 935 291 q 939 282 939 278 q 901 216 862 162 q 835 123 805 88 q 773 53 758 42 q 708 0 659 0 q 612 0 580 28 q 549 58 549 106 q 549 153 580 221 q 600 266 607 291 q 614 314 614 327 l 614 333 q 614 346 604 354 q 599 357 592 357 l 590 357 q 566 357 513 300 q 482 262 467 236 q 421 164 369 36 q 355 1 354 0 l 197 0 l 196 0 q 311 276 311 278 q 322 311 322 329 q 322 350 308 356 q 303 357 300 357 l 298 357 q 276 357 237 320 q 216 297 197 271 q 153 207 124 146 q 94 87 58 0 l -100 0 l -100 0 q -98 6 -11 218 l 104 493 z"},"#":{"x_min":0,"x_max":0,"ha":0,"o":""},",":{"x_min":0,"x_max":451,"ha":451,"o":"m 212 154 l 214 154 q 242 154 254 125 q 257 114 257 104 q 257 46 174 -30 q 130 -67 99 -83 q 77 -95 75 -95 q 48 -75 48 -45 q 48 -36 50 -36 q 104 -25 131 -14 q 143 -10 165 0 l 165 0 q 142 0 128 22 q 122 36 122 50 q 122 83 147 118 q 180 154 212 154 z"},"n":{"x_min":0,"x_max":573,"ha":573,"o":"m 262 493 l 262 493 q 260 488 209 364 l 209 364 q 229 391 257 421 q 325 493 387 493 l 390 493 q 443 493 475 458 q 498 430 498 385 q 498 341 466 271 q 449 229 440 201 q 434 180 434 167 l 434 163 q 434 144 447 138 q 452 136 457 136 q 490 136 565 235 q 584 258 621 308 l 622 308 q 635 304 643 291 q 646 285 647 278 q 604 212 582 178 q 551 133 512 88 q 479 53 466 43 q 416 0 366 0 q 331 0 302 17 q 256 46 256 108 q 256 149 284 213 q 307 265 316 297 q 322 318 322 330 q 322 350 307 356 q 303 357 300 357 l 298 357 q 275 357 224 305 q 193 270 172 238 q 127 168 71 32 q 60 4 58 0 l -100 0 q -100 0 -100 1 l 49 362 q 80 435 104 493 z"},"h":{"x_min":0,"x_max":572,"ha":572,"o":"m 288 781 q 322 781 369 752 q 408 726 418 697 q 404 691 378 668 q 351 641 338 624 q 303 578 278 528 q 260 492 229 414 q 229 414 208 364 l 208 364 q 229 391 257 421 q 325 493 386 493 l 389 493 q 443 493 476 456 q 498 427 498 387 q 498 343 470 280 q 449 232 439 199 q 433 178 433 166 l 433 163 q 433 142 449 136 q 454 135 456 135 q 489 135 565 234 q 586 262 621 308 l 621 308 q 628 307 637 298 q 644 291 646 278 q 606 214 572 165 q 544 125 505 80 q 475 49 469 45 q 417 0 366 0 q 311 0 278 38 q 256 65 256 109 q 256 134 269 174 q 276 196 304 262 q 321 306 321 330 q 321 350 307 356 q 303 357 300 357 l 296 357 q 275 357 224 305 q 193 271 171 237 q 125 163 83 62 q 77 47 57 0 l -101 0 l -101 0 q -93 21 33 324 q 103 494 132 560 q 168 642 208 703 q 251 768 288 781 z"},"z":{"x_min":0,"x_max":501,"ha":501,"o":"m 11 -137 q 11 -146 22 -150 l 26 -150 q 46 -150 79 -114 q 90 -101 104 -79 q 88 -81 48 -101 q 11 -122 11 -137 z m 109 333 q 103 321 82 288 q 66 263 46 233 q -9 146 -85 80 l -85 80 q -90 80 -98 95 q -109 115 -109 129 l -109 132 q -109 137 -106 137 q -81 139 3 248 q 32 286 46 306 q 50 312 53 317 q 54 318 55 320 l 57 323 q 71 346 84 369 l 83 369 q 74 373 63 380 q 54 387 46 396 q 100 479 134 528 q 141 521 153 513 q 198 493 248 493 l 500 493 q 463 402 444 363 q 378 233 271 165 l 271 165 q 314 138 314 88 q 314 80 312 66 l 312 66 q 338 80 386 121 q 412 144 450 182 q 487 225 529 281 q 547 306 548 308 l 549 308 q 556 307 565 298 q 571 291 575 278 q 549 239 527 206 q 494 158 450 105 q 396 44 368 23 q 341 3 320 -8 q 294 -21 294 -21 q 282 -50 261 -92 q 240 -133 209 -174 q 195 -192 182 -206 q 103 -288 5 -288 l 3 -288 q -50 -288 -92 -250 q -130 -212 -130 -166 l -130 -164 q -130 -105 -71 -59 q -49 -43 -32 -35 q -13 -26 14 -18 q 43 -7 139 7 q 149 9 149 11 q 172 45 172 65 q 172 76 166 80 q 163 81 160 81 l 160 81 q 141 81 107 30 q 92 9 75 3 q 66 0 34 0 l -36 0 q -36 0 -36 0 q -19 42 8 85 q 24 109 55 143 q 90 178 118 197 l 189 250 q 214 270 244 299 q 277 335 292 357 l 148 357 q 135 357 124 359 z"},"B":{"x_min":0,"x_max":830,"ha":830,"o":"m 655 815 l 660 815 q 702 815 731 781 l 731 781 q 718 773 692 751 q 724 739 755 717 q 769 707 792 684 q 846 623 846 547 q 846 477 798 417 q 776 392 760 380 q 730 358 709 349 q 688 337 650 327 q 648 327 647 327 q 713 284 739 215 q 751 181 751 142 q 751 61 709 -9 q 699 -24 674 -51 q 650 -73 631 -85 q 565 -127 494 -127 q 401 -127 319 -56 q 347 -21 374 25 q 395 62 411 95 l 412 95 q 445 69 484 69 q 528 69 567 102 q 586 120 593 133 q 611 165 611 196 l 611 200 q 611 250 568 287 q 545 304 530 309 q 520 313 504 316 q 486 319 480 319 q 431 198 396 129 q 365 66 318 3 q 300 -21 261 -63 q 222 -103 198 -122 q 198 -122 191 -128 q 185 -128 183 -128 q 148 -128 95 -94 q 77 -82 62 -69 q 34 -42 28 -32 q 5 -2 0 18 q 27 31 60 52 q 93 73 135 110 q 153 125 194 167 q 194 167 212 187 q 266 250 300 304 q 343 373 378 444 q 445 578 474 632 q 492 666 505 685 l 504 685 q 412 685 339 632 q 309 609 287 579 q 251 527 251 472 q 251 429 272 388 q 265 373 252 355 q 242 342 229 327 q 199 296 192 292 q 168 271 151 260 q 117 238 93 230 q 38 325 38 415 q 38 508 101 600 q 114 619 140 646 q 174 678 189 688 q 226 714 262 730 q 288 744 340 760 q 420 782 499 782 q 548 782 578 778 q 600 798 624 808 q 642 815 655 815 z m 624 658 q 601 613 547 481 q 545 477 505 379 l 505 379 q 613 379 659 424 q 676 442 685 459 q 705 499 705 535 q 705 602 644 646 q 625 658 624 658 z"},"K":{"x_min":0,"x_max":781,"ha":781,"o":"m 373 782 q 446 782 525 756 q 579 741 647 729 q 651 728 652 728 l 652 727 l 565 516 l 444 226 l 559 378 q 605 439 671 520 q 705 560 758 616 q 818 675 832 685 q 859 709 892 731 q 926 754 949 765 q 972 775 978 775 l 979 775 q 1018 775 1073 732 q 1099 708 1108 695 q 1124 675 1130 658 q 1130 658 1131 654 q 1106 652 1093 650 q 1066 646 1043 639 q 931 604 789 486 q 753 457 697 402 q 625 332 604 308 q 591 294 588 291 q 602 285 622 266 q 640 245 646 224 q 652 212 658 175 q 667 104 672 77 q 679 50 687 32 q 695 14 709 -3 q 721 -16 731 -23 q 746 -33 758 -39 q 772 -45 794 -51 q 789 -63 773 -85 q 752 -114 723 -134 q 698 -151 669 -161 q 655 -166 633 -170 q 623 -171 605 -173 q 592 -166 580 -155 q 529 -112 529 -29 q 529 12 543 101 q 551 149 551 176 q 551 211 542 237 q 501 192 424 102 q 379 50 323 -9 q 265 -68 237 -91 q 207 -118 193 -128 q 189 -128 186 -128 q 145 -128 85 -85 q 70 -74 48 -52 q 21 -22 13 -4 q 4 14 3 18 l 33 34 q 63 50 100 79 q 124 98 154 126 q 188 160 209 184 q 258 241 293 296 q 342 372 376 446 q 395 487 437 590 q 439 595 465 658 l 465 658 q 429 669 399 669 l 392 669 q 335 669 284 635 q 250 610 236 582 q 216 546 216 508 q 216 474 233 438 q 229 428 218 413 q 209 398 182 369 q 146 333 123 318 q 93 297 69 287 q 60 283 55 281 q 53 284 42 306 q 0 388 0 466 q 0 566 64 648 q 72 659 96 683 l 120 703 q 146 721 166 732 q 191 746 227 758 q 300 782 373 782 z"},"R":{"x_min":0,"x_max":781,"ha":781,"o":"m 656 815 l 661 815 q 701 815 731 781 q 731 781 719 773 q 705 763 692 751 l 692 751 q 722 739 751 719 q 765 709 784 692 q 806 669 815 653 q 846 603 846 550 l 846 546 q 846 476 796 415 q 778 394 765 384 q 735 360 705 347 q 677 334 651 328 q 633 323 599 318 q 576 315 574 315 q 603 295 616 262 q 621 250 627 223 q 630 208 640 130 q 646 98 654 78 q 660 63 671 47 q 688 25 707 13 q 725 1 747 -5 l 762 -10 q 750 -34 722 -65 q 694 -91 676 -100 q 663 -108 639 -117 q 623 -122 595 -126 l 578 -128 q 503 -85 503 7 l 503 8 q 503 10 503 10 q 503 12 503 13 l 503 18 q 503 50 518 138 q 524 182 524 212 l 524 212 q 524 284 482 317 q 481 317 479 317 q 431 199 399 134 q 382 101 357 60 q 334 25 309 -8 q 291 -32 251 -73 q 210 -113 190 -128 q 184 -128 183 -128 q 146 -128 90 -91 q 21 -41 0 18 q 20 27 45 42 q 82 64 126 103 q 179 148 221 197 q 259 243 281 276 q 320 333 355 399 q 377 442 445 578 q 478 642 504 685 l 504 685 l 504 685 q 394 685 315 612 q 290 586 279 567 q 251 521 251 473 l 251 469 q 251 430 272 387 q 262 366 233 332 q 206 302 190 290 q 146 254 116 240 q 107 235 93 230 q 38 326 38 415 q 38 507 101 599 q 112 616 133 639 q 162 668 176 678 q 210 705 243 721 q 271 736 295 745 q 395 782 499 782 q 548 782 578 778 q 618 815 656 815 z m 623 657 q 600 612 570 537 l 505 379 l 505 379 q 610 379 656 422 q 673 439 681 453 q 705 496 705 533 l 705 536 q 705 591 661 632 q 642 648 628 655 q 625 657 623 657 z"},"T":{"x_min":0,"x_max":537,"ha":537,"o":"m 870 789 l 870 789 q 897 757 897 717 q 897 667 857 634 q 834 615 804 608 q 780 603 748 603 q 692 603 607 621 q 457 257 438 214 q 402 127 352 47 q 331 16 298 -25 q 281 -46 245 -83 l 220 -105 q 205 -119 192 -128 q 188 -128 186 -128 q 142 -128 79 -81 q 18 -31 2 18 q 37 33 88 70 q 110 86 155 127 q 200 172 218 195 q 253 237 287 288 q 344 375 381 459 q 400 502 464 658 q 428 669 397 669 l 391 669 q 337 669 287 638 q 275 630 255 610 q 228 578 220 546 q 215 527 215 512 l 215 505 q 215 474 232 438 l 232 438 q 222 415 189 377 q 156 344 148 339 q 100 298 54 281 q 34 314 17 362 q 0 416 0 463 l 0 470 q 0 554 49 629 q 61 646 86 673 q 110 697 129 709 q 155 727 174 737 q 202 751 245 764 q 311 782 372 782 q 445 782 525 756 q 655 720 734 720 q 837 720 866 778 q 870 787 870 789 z"},"P":{"x_min":0,"x_max":879,"ha":879,"o":"m 655 814 l 660 814 q 702 814 731 781 l 731 781 q 723 776 707 764 q 707 763 723 759 q 764 746 794 729 q 818 717 845 695 q 928 623 928 517 q 928 467 903 411 q 847 290 708 228 q 682 215 633 202 q 555 184 481 184 q 452 184 424 188 l 424 188 q 390 109 339 33 q 312 -7 269 -54 q 226 -99 211 -110 l 191 -128 q 185 -128 183 -128 q 147 -128 94 -94 q 80 -84 53 -60 q 23 -29 14 -11 q 4 4 0 18 q 34 34 72 61 q 104 82 146 120 q 190 162 207 181 q 251 233 275 267 q 319 330 356 401 q 377 440 448 583 q 479 644 505 686 l 504 686 q 471 686 423 673 q 393 664 369 651 q 350 641 327 623 q 302 601 293 588 q 251 533 251 472 l 251 470 q 251 429 272 388 q 264 373 252 355 q 242 342 229 327 q 199 296 192 292 q 168 271 151 260 q 117 238 93 230 q 38 325 38 415 q 38 506 99 597 q 173 702 311 750 q 341 761 380 770 q 440 782 525 782 q 549 782 581 781 q 597 795 613 803 q 636 814 655 814 z m 630 670 q 605 625 562 517 l 458 268 l 459 268 q 575 268 638 301 q 658 309 689 335 q 711 357 721 371 q 770 443 770 507 q 770 585 701 637 q 679 652 656 661 q 634 670 630 670 z"},"|":{"x_min":0,"x_max":0,"ha":0,"o":""},"t":{"x_min":0,"x_max":277,"ha":277,"o":"m 288 781 q 324 781 372 750 q 408 726 419 697 q 371 672 314 588 q 289 551 271 511 q 262 493 201 344 q 159 245 147 212 q 137 182 137 167 l 137 162 q 137 145 150 137 q 156 135 161 135 q 195 135 278 246 q 287 257 325 308 l 325 308 q 340 303 347 290 q 351 280 351 278 q 314 219 271 157 q 247 123 211 83 q 184 54 171 43 q 120 0 70 0 q 15 0 -17 37 q -40 65 -40 104 l -40 107 q -40 153 -10 218 q -10 219 84 445 q 128 554 166 629 q 188 672 216 714 q 255 769 288 781 z m 488 588 l 488 588 l 462 518 l -71 518 q -72 518 -72 519 l -45 588 z"},"M":{"x_min":0,"x_max":1263,"ha":1263,"o":"m 556 782 q 628 782 708 756 q 761 741 829 729 q 833 728 834 728 l 834 728 q 834 727 828 709 q 799 626 799 488 l 799 476 q 799 474 799 472 q 799 470 799 468 l 799 465 q 799 393 812 215 l 812 215 q 851 295 915 392 q 945 436 977 477 q 1012 521 1065 580 q 1124 640 1141 655 q 1200 709 1247 743 q 1292 775 1310 781 q 1346 781 1394 750 q 1430 726 1441 697 q 1423 689 1404 672 q 1384 654 1374 641 q 1340 598 1311 545 q 1254 447 1202 298 q 1139 113 1139 11 l 1139 4 q 1139 -20 1145 -44 q 1136 -71 1079 -102 q 1024 -128 990 -128 q 989 -128 984 -105 q 977 -66 977 -23 l 977 -22 q 977 108 1036 273 q 1056 324 1088 395 q 1120 464 1147 519 l 1146 519 q 1107 481 1086 458 q 1032 397 1007 362 q 975 320 950 281 q 882 176 837 71 q 822 38 811 7 l 811 7 q 774 7 720 34 q 694 46 667 68 q 648 88 645 94 q 635 109 634 123 q 642 133 648 147 q 660 170 674 224 q 691 295 711 470 l 711 470 l 711 470 q 673 398 612 302 q 565 230 509 157 q 476 113 432 63 q 375 3 342 -25 q 286 -73 253 -93 q 223 -113 191 -128 q 187 -128 184 -128 q 142 -128 82 -84 q 19 -35 1 18 q 1 18 22 23 q 86 44 140 70 q 188 94 247 133 q 283 158 336 205 q 359 225 395 261 q 395 262 416 283 q 417 286 442 313 q 483 363 518 410 q 584 506 630 598 q 645 625 658 655 q 614 669 581 669 l 573 669 q 521 669 473 639 q 427 609 407 558 q 398 533 398 508 q 398 474 416 438 q 406 417 374 379 q 342 346 333 340 q 296 310 273 298 q 252 286 237 281 q 218 315 207 344 q 183 407 183 467 q 183 566 246 647 q 254 659 278 683 q 332 730 397 754 q 475 782 556 782 z"},"g":{"x_min":0,"x_max":576,"ha":576,"o":"m 273 513 l 275 513 q 314 513 349 488 q 369 472 379 455 q 387 441 393 425 q 394 422 394 421 l 394 421 q 423 493 424 493 l 582 493 l 582 493 q 442 155 438 146 q 437 142 412 83 l 413 83 q 438 100 469 128 q 498 154 523 180 q 560 221 601 278 q 622 307 624 308 q 639 303 645 291 q 649 282 649 278 q 607 210 561 149 q 535 115 489 65 q 459 35 448 27 q 426 10 398 -6 l 369 -21 q 340 -89 298 -153 q 281 -177 259 -202 q 236 -225 223 -235 q 156 -288 81 -288 l 79 -288 q 27 -288 -15 -253 q -55 -214 -55 -163 q -55 -117 -15 -75 q -14 -75 -4 -65 q 22 -45 41 -36 q 62 -25 96 -15 q 125 -6 214 8 q 223 9 224 10 l 273 131 l 273 131 q 258 110 223 73 q 151 0 91 0 q 36 0 5 57 q -15 97 -15 144 l -15 153 q -15 213 17 289 q 33 325 59 364 q 77 390 104 420 q 138 454 149 460 q 173 479 198 492 q 240 513 273 513 z m 152 177 q 152 146 174 135 q 177 135 178 135 l 180 135 q 211 135 285 218 q 319 258 337 284 l 370 364 q 362 387 346 397 q 334 403 322 403 q 273 403 212 324 q 191 295 177 266 q 152 214 152 177 z m 86 -136 l 86 -137 q 86 -146 98 -150 q 101 -150 101 -150 q 121 -150 154 -115 q 166 -100 178 -79 l 178 -79 q 169 -80 137 -93 q 86 -119 86 -136 z"},"j":{"x_min":0,"x_max":256,"ha":256,"o":"m 104 493 l 261 493 l 262 493 q 121 152 116 139 q 116 139 92 82 q 109 94 138 118 q 151 128 203 179 q 203 181 216 194 q 255 242 302 307 l 304 308 q 319 303 325 291 q 330 282 330 278 q 287 210 235 142 q 210 109 170 67 q 138 33 130 29 q 97 3 72 -9 q 67 -12 49 -21 q 21 -86 -21 -150 q -38 -175 -62 -204 q -143 -288 -240 -288 l -241 -288 q -291 -288 -331 -256 q -348 -239 -352 -233 q -375 -201 -375 -167 l -375 -163 q -375 -126 -349 -91 q -334 -72 -315 -58 q -292 -42 -275 -35 q -253 -23 -207 -11 q -179 -4 -96 9 q -96 10 35 326 q 93 467 104 493 z m -234 -137 q -234 -145 -225 -149 q -223 -150 -219 -150 q -198 -150 -164 -112 q -154 -99 -142 -79 l -142 -79 q -152 -80 -185 -95 q -234 -119 -234 -137 z m 226 651 l 269 651 q 291 651 300 642 q 309 633 309 619 q 309 607 298 583 q 290 561 281 551 q 252 518 217 518 l 166 518 q 141 518 132 537 q 130 544 130 550 q 130 562 142 587 q 149 609 163 625 q 175 636 188 643 q 204 651 226 651 z"},"i":{"x_min":0,"x_max":274,"ha":274,"o":"m 261 495 l 262 494 q 157 242 149 221 q 137 186 137 167 q 137 146 151 140 q 156 139 158 139 l 161 139 q 196 139 286 260 q 300 278 324 311 q 339 305 346 293 q 350 285 350 281 q 329 246 296 197 q 277 169 252 137 q 230 106 199 73 q 132 4 74 4 l 68 4 q 21 4 -11 34 q -39 63 -39 108 q -39 156 -9 222 q -6 228 93 467 q 103 491 104 495 z m 226 651 l 269 651 q 291 651 300 642 q 309 633 309 619 q 309 607 298 583 q 290 561 281 551 q 252 518 217 518 l 166 518 q 141 518 132 537 q 130 544 130 550 q 130 562 142 587 q 149 609 163 625 q 175 636 188 643 q 204 651 226 651 z"},"y":{"x_min":0,"x_max":546,"ha":546,"o":"m 104 493 l 261 493 l 262 493 q 160 247 149 219 q 137 184 137 167 l 137 164 q 137 164 137 164 l 137 163 l 137 161 q 137 144 151 137 q 156 135 160 135 q 196 135 283 253 q 311 289 312 292 q 391 485 395 493 l 552 493 l 553 493 q 411 151 410 147 q 409 146 383 82 q 401 95 423 113 q 488 170 518 208 q 558 257 594 308 l 594 308 q 610 303 616 291 q 620 282 620 278 q 577 208 532 149 q 506 117 483 91 q 469 74 433 39 q 404 15 385 3 q 366 -8 340 -21 q 309 -92 268 -153 q 255 -174 223 -208 q 193 -238 177 -248 q 117 -288 51 -288 l 50 -288 q -3 -288 -45 -252 q -62 -234 -68 -223 q -84 -195 -84 -167 l -84 -163 q -84 -109 -32 -64 q -10 -47 7 -39 q 27 -28 60 -17 q 94 -7 169 5 q 193 9 194 10 l 237 113 l 237 113 q 220 91 186 57 q 126 0 70 0 q 20 0 -12 31 q -40 60 -40 104 l -40 108 q -40 151 -12 215 l 104 493 z m 57 -137 q 57 -146 68 -150 l 71 -150 q 93 -150 126 -112 q 137 -99 149 -79 l 149 -79 q 139 -80 104 -95 q 57 -120 57 -137 z"},"@":{"x_min":0,"x_max":0,"ha":0,"o":""},".":{"x_min":0,"x_max":422,"ha":422,"o":"m 199 154 l 200 154 q 231 154 242 122 q 244 114 244 107 l 244 102 q 244 69 216 34 q 185 0 153 0 q 124 0 112 30 q 109 40 109 51 q 109 88 141 124 q 170 154 199 154 z"},"p":{"x_min":0,"x_max":537,"ha":537,"o":"m 398 512 l 398 512 q 454 512 484 455 q 504 415 504 369 l 504 359 q 504 294 468 213 q 454 185 431 150 q 412 123 385 93 q 348 57 336 49 q 315 34 293 22 q 250 0 214 0 q 180 0 147 20 q 138 25 122 42 q 102 64 96 90 q 95 90 66 20 q 1 -139 -48 -213 q -91 -275 -126 -288 l -128 -288 q -163 -288 -212 -256 q -247 -231 -257 -204 l -257 -204 q -244 -198 -217 -174 q -185 -142 -175 -127 q -154 -100 -136 -70 q -120 -42 -104 -9 l 20 290 q 101 487 104 493 l 262 493 q 261 489 217 384 q 235 407 257 431 q 333 512 398 512 z m 128 169 q 143 131 176 131 q 223 131 281 204 q 301 231 318 262 q 346 319 346 356 q 346 387 326 398 q 323 399 320 399 l 319 399 q 285 399 206 308 q 180 277 163 253 q 128 170 128 169 z"},"X":{"x_min":0,"x_max":879,"ha":879,"o":"m 347 783 l 351 783 q 531 783 623 560 q 636 531 648 491 q 733 576 756 596 q 956 781 1059 781 q 1102 781 1130 730 q 1058 713 965 640 q 930 611 876 561 q 802 487 771 450 q 726 400 687 354 q 696 317 728 178 q 758 58 786 19 q 805 -12 833 -23 q 839 -25 841 -25 l 841 -25 q 812 -58 793 -72 q 776 -86 763 -94 q 744 -105 723 -113 q 686 -124 676 -124 q 660 -127 640 -128 q 619 -107 610 -92 q 598 -72 588 -43 q 580 -22 570 28 q 564 61 560 117 q 558 140 554 196 q 467 90 399 13 q 370 -19 338 -50 q 292 -96 272 -109 q 255 -123 245 -128 l 245 -128 q 186 -128 122 -71 q 98 -48 87 -34 q 64 -2 55 18 q 135 52 230 110 q 280 141 336 185 q 374 213 438 273 q 510 344 542 378 q 536 430 527 471 q 514 527 499 561 q 486 590 465 620 q 420 674 365 674 l 362 674 q 328 674 292 651 q 282 646 265 628 q 240 602 229 575 q 215 542 215 510 q 215 474 232 438 q 225 420 195 384 q 165 352 151 341 q 112 309 86 296 q 74 289 54 281 l 54 281 q 0 374 0 467 q 0 550 46 625 q 58 643 85 674 q 119 707 140 719 q 208 765 285 778 q 318 783 347 783 z"},"*":{"x_min":0,"x_max":0,"ha":0,"o":""},"Y":{"x_min":0,"x_max":900,"ha":900,"o":"m 372 782 q 446 782 526 756 q 577 741 646 729 q 651 728 651 727 q 531 438 518 403 q 494 342 481 295 q 467 237 467 204 l 467 195 q 467 160 484 143 q 496 131 516 131 q 562 131 635 226 q 683 286 720 349 q 750 400 780 459 q 812 517 842 561 q 857 583 882 609 q 927 655 973 655 q 1015 655 1045 621 q 990 586 954 527 q 923 476 889 387 q 770 103 766 90 q 722 -13 685 -77 q 659 -121 622 -169 q 603 -194 565 -233 q 526 -271 504 -288 l 502 -288 l 496 -288 q 458 -288 401 -249 q 335 -200 313 -142 q 348 -127 402 -89 q 433 -66 481 -20 q 533 33 552 58 q 582 95 601 124 l 600 124 q 581 101 543 63 q 507 31 488 21 q 454 0 415 0 q 336 0 312 93 q 303 126 303 167 l 303 170 q 303 249 340 353 q 354 393 398 499 l 464 658 q 428 669 397 669 l 390 669 q 332 669 280 633 q 259 617 243 595 q 215 553 215 511 l 215 506 q 215 474 232 438 q 227 425 201 391 q 174 360 145 335 q 116 313 97 302 q 77 290 57 282 q 55 281 54 281 q 0 375 0 464 l 0 469 q 0 564 61 645 q 86 677 118 702 q 146 722 166 732 q 196 749 239 763 q 308 782 372 782 z"},"c":{"x_min":0,"x_max":384,"ha":384,"o":"m 270 494 q 333 494 354 445 q 363 426 363 401 q 363 356 338 304 q 332 295 319 295 q 296 295 270 314 q 258 325 258 332 l 258 334 q 258 335 266 354 q 272 369 272 379 q 272 384 268 384 q 257 384 222 337 q 153 242 153 177 l 153 173 q 153 141 174 124 q 188 115 205 115 q 246 115 294 160 q 315 181 340 213 q 378 260 412 308 l 413 308 q 429 302 435 290 q 438 282 438 278 q 397 211 370 173 q 344 135 304 87 q 272 53 257 42 q 232 21 217 15 q 204 7 178 -1 q 148 -9 123 -9 l 122 -9 q 69 -9 30 24 q 13 41 6 56 q -14 96 -14 144 l -14 152 q -14 229 32 318 q 47 346 72 377 q 82 390 110 418 q 135 440 158 456 q 220 494 270 494 z"},"!":{"x_min":0,"x_max":0,"ha":0,"o":""},"/":{"x_min":0,"x_max":0,"ha":0,"o":""},"[":{"x_min":0,"x_max":0,"ha":0,"o":""},"6":{"x_min":0,"x_max":0,"ha":0,"o":""},"r":{"x_min":0,"x_max":412,"ha":412,"o":"m 134 528 q 146 515 162 510 q 203 493 247 493 l 398 493 l 398 493 q 295 245 288 227 q 273 187 273 164 q 273 143 287 137 q 292 135 296 135 q 330 135 408 238 q 439 279 460 308 q 467 307 478 297 q 484 289 486 278 q 450 219 403 153 q 381 122 347 83 q 318 52 305 42 q 254 0 206 0 q 149 0 117 39 q 96 67 96 105 q 96 151 123 210 q 184 356 184 357 l 148 357 q 136 357 124 359 q 102 319 46 233 q -9 146 -81 76 l -82 76 q -101 95 -105 130 q -81 139 3 248 q 44 301 55 320 q 70 343 84 369 q 65 376 52 389 q 46 396 46 396 l 133 528 z"},"2":{"x_min":0,"x_max":0,"ha":0,"o":""},"{":{"x_min":0,"x_max":0,"ha":0,"o":""},"9":{"x_min":0,"x_max":0,"ha":0,"o":""}," ":{"x_min":0,"x_max":293,"ha":293,"o":""},"I":{"x_min":0,"x_max":537,"ha":537,"o":"m 373 742 q 446 742 525 716 q 582 700 642 689 q 652 688 652 687 q 514 354 508 340 q 448 191 417 125 q 389 63 348 1 q 323 -37 279 -88 q 241 -128 221 -145 q 209 -155 193 -168 q 192 -168 186 -168 q 145 -168 84 -125 q 21 -76 3 -22 q 27 -11 57 8 q 87 27 125 59 q 179 107 211 146 q 257 201 292 254 q 340 328 376 405 q 396 448 440 559 q 442 562 465 618 q 428 629 396 629 q 317 629 260 575 q 260 574 253 567 q 229 541 219 499 q 216 484 216 472 l 216 465 q 216 435 233 398 q 224 377 193 341 q 166 312 154 303 q 100 257 55 241 q 0 335 0 423 l 0 430 q 0 512 48 587 q 58 601 80 626 q 104 651 118 661 q 141 679 167 692 q 196 708 238 722 q 306 742 373 742 z"},"H":{"x_min":0,"x_max":863,"ha":863,"o":"m 373 782 q 446 782 525 756 q 579 741 647 729 q 651 728 652 728 l 652 727 q 651 724 538 450 q 500 361 500 360 l 667 360 q 730 508 797 634 q 827 687 857 731 q 869 749 889 770 q 903 781 905 781 q 940 781 989 750 q 1000 742 1015 728 q 1033 709 1036 697 q 1018 689 999 672 q 980 656 969 641 q 935 598 904 544 q 871 482 850 434 q 807 339 772 225 q 733 90 733 11 l 733 4 q 733 -21 740 -44 q 731 -72 673 -103 q 619 -128 584 -128 q 581 -119 575 -82 q 572 -56 572 -24 l 572 -22 q 572 104 627 265 q 628 267 632 278 l 466 278 q 403 119 340 30 q 321 1 290 -35 q 245 -86 208 -117 q 194 -128 193 -128 q 189 -128 186 -128 q 150 -128 97 -94 q 79 -82 54 -59 q 27 -31 17 -13 q 3 13 3 18 q 36 32 87 68 q 111 86 156 127 q 208 180 222 199 q 253 236 281 278 l 241 278 l 241 279 q 291 355 294 360 l 332 360 q 346 383 368 428 q 393 482 436 587 q 443 604 465 658 l 465 658 q 429 669 399 669 l 391 669 q 335 669 284 635 q 258 616 243 593 q 216 553 216 508 q 216 474 233 438 q 224 417 192 379 q 156 343 150 339 q 132 324 119 315 q 79 289 54 281 q 36 315 24 344 q 0 407 0 466 q 0 566 63 647 q 72 659 96 683 q 149 730 214 753 q 292 782 373 782 z"},"4":{"x_min":0,"x_max":0,"ha":0,"o":""},"~":{"x_min":0,"x_max":0,"ha":0,"o":""},"D":{"x_min":0,"x_max":1012,"ha":1012,"o":"m 655 814 l 660 814 q 701 814 731 781 l 731 781 q 720 774 703 761 q 732 753 760 742 q 798 726 823 709 q 845 696 872 672 q 898 646 908 632 q 933 596 944 570 q 974 500 974 424 l 974 417 q 974 294 906 165 q 885 125 852 80 q 832 55 800 21 q 758 -19 742 -29 q 706 -57 667 -78 q 554 -137 432 -137 q 333 -137 228 -96 q 207 -114 191 -127 q 185 -128 182 -128 q 147 -128 94 -94 q 78 -83 51 -58 q 24 -30 15 -14 q 4 4 0 18 q 34 34 72 61 q 104 82 146 120 q 193 164 208 184 q 254 236 285 282 q 330 348 371 430 q 439 568 474 632 q 491 663 505 686 l 504 686 q 474 686 427 675 q 390 664 368 651 q 347 639 321 618 q 295 593 290 583 q 251 531 251 474 l 251 471 q 251 430 272 388 l 272 388 q 263 367 230 328 q 197 294 188 289 q 146 254 116 240 q 103 233 93 230 q 38 326 38 415 q 38 509 103 602 q 117 622 140 646 q 165 670 182 683 q 219 710 257 729 q 288 743 313 751 q 342 762 396 772 q 450 782 525 782 l 525 782 q 549 782 580 781 q 619 814 655 814 z m 630 670 q 605 625 561 516 q 454 256 428 196 q 395 120 347 44 q 324 11 307 -10 l 307 -11 l 307 -11 q 322 -12 333 -12 q 456 -12 575 89 q 616 126 636 151 q 672 194 695 233 q 768 358 768 468 q 768 574 699 633 q 679 648 663 656 q 649 664 630 670 z"},"^":{"x_min":0,"x_max":0,"ha":0,"o":""},"0":{"x_min":0,"x_max":0,"ha":0,"o":""},"F":{"x_min":0,"x_max":684,"ha":684,"o":"m 869 789 l 870 789 q 897 758 897 716 q 897 673 865 640 q 845 622 819 612 q 790 603 748 603 q 691 603 607 621 l 525 423 q 589 418 628 418 q 668 418 701 424 l 701 424 q 701 406 686 368 q 677 349 664 331 q 656 322 653 319 l 653 319 q 602 319 487 331 l 487 331 q 443 223 410 152 q 379 88 337 28 q 316 -5 268 -58 q 230 -97 212 -112 q 193 -128 192 -128 q 188 -128 185 -128 q 142 -128 79 -81 q 18 -31 2 18 q 26 29 55 47 q 86 67 126 101 q 178 148 209 185 q 257 241 293 297 q 310 322 322 344 l 321 344 q 246 344 229 321 q 228 320 228 319 l 227 319 q 229 337 233 347 q 240 368 256 386 q 269 398 281 405 q 299 415 318 420 q 353 427 366 427 q 389 474 436 589 q 464 657 464 658 q 428 669 398 669 l 390 669 q 332 669 280 633 q 253 612 239 588 q 215 550 215 513 l 215 505 q 215 474 232 438 l 232 438 q 222 415 188 377 q 157 345 147 338 q 124 318 106 308 q 77 289 54 281 q 34 314 17 362 q 0 416 0 463 l 0 470 q 0 553 49 628 q 61 647 84 671 q 110 697 124 706 q 149 725 181 740 q 208 753 243 764 q 309 782 372 782 q 445 782 526 756 q 656 720 733 720 q 835 720 864 776 q 869 787 869 789 z"},"`":{"x_min":0,"x_max":0,"ha":0,"o":""},"k":{"x_min":0,"x_max":573,"ha":573,"o":"m 288 781 q 322 781 371 751 q 406 727 418 697 q 371 673 312 587 q 277 533 256 479 l 177 289 l 178 289 q 209 338 259 399 q 289 432 307 447 q 361 493 417 493 l 421 493 q 467 493 503 464 q 537 433 537 389 l 537 386 q 537 337 495 275 q 486 263 466 243 q 438 218 416 208 q 400 200 369 191 q 355 188 328 185 q 328 136 363 120 q 375 116 388 116 l 389 116 q 431 116 476 154 q 505 183 521 203 q 556 244 603 308 l 603 308 q 610 307 619 298 q 625 291 628 278 l 581 204 q 550 158 514 112 q 499 92 468 61 q 406 0 345 0 q 235 0 197 88 q 179 132 179 197 q 179 203 179 205 q 107 101 61 7 q 58 0 57 0 l -100 0 l -101 0 q 50 364 54 375 q 115 523 142 583 q 179 661 211 708 q 251 767 288 781 z m 222 263 q 230 261 238 261 l 241 261 q 285 261 341 300 q 374 325 378 345 q 379 347 379 349 l 379 351 q 379 365 356 369 l 354 369 q 330 369 277 324 q 242 289 233 278 q 229 273 222 263 z"},"u":{"x_min":0,"x_max":565,"ha":565,"o":"m 104 495 l 261 495 q 262 495 262 494 q 160 249 151 227 q 137 188 137 170 l 137 168 q 137 167 137 167 q 137 146 152 140 q 156 139 158 139 l 161 139 q 193 139 267 234 q 313 294 313 297 l 395 495 l 552 495 l 553 494 q 448 243 439 220 q 428 187 428 167 q 428 145 443 140 q 447 139 449 139 l 451 139 q 484 139 562 240 q 577 259 615 311 q 629 305 637 292 q 640 286 641 281 q 592 202 542 135 q 521 106 487 70 q 421 4 364 4 l 359 4 q 314 4 282 32 q 252 61 252 108 q 252 124 254 139 q 231 107 202 76 q 133 4 74 4 l 69 4 q 19 4 -13 36 q -39 64 -39 112 q -39 136 -27 175 q -17 204 42 344 q 42 345 104 494 z"},"]":{"x_min":0,"x_max":0,"ha":0,"o":""},"U":{"x_min":0,"x_max":969,"ha":969,"o":"m 372 782 q 444 782 523 757 q 576 741 648 728 q 650 728 651 728 l 651 727 q 613 674 577 608 q 532 527 488 415 q 465 354 448 285 q 431 213 431 166 q 431 106 457 90 q 465 86 474 86 l 474 86 q 507 86 563 138 q 597 170 612 188 q 663 245 692 292 q 740 366 787 470 l 815 535 q 879 684 931 742 q 960 774 981 781 q 1017 781 1065 750 q 1076 743 1092 728 q 1109 708 1112 697 l 1112 696 q 1064 673 1007 589 q 980 549 962 508 q 952 486 863 271 q 844 229 835 197 q 830 178 830 164 q 830 143 844 137 q 849 135 853 135 q 887 135 964 238 q 996 277 1017 308 l 1018 308 q 1032 304 1040 290 q 1043 280 1043 278 q 1007 219 960 153 q 938 121 904 83 q 874 51 862 42 q 812 0 763 0 q 708 0 676 36 q 653 63 653 105 q 653 120 655 134 l 655 134 l 655 134 q 630 98 593 53 q 574 29 532 -13 q 496 -47 466 -67 q 390 -121 331 -121 q 270 -121 239 -64 q 219 -23 219 34 q 219 137 273 280 q 313 392 368 504 q 407 582 455 657 q 456 657 457 660 q 426 669 397 669 l 391 669 q 357 669 322 656 q 304 648 285 636 q 274 629 257 612 q 233 586 223 556 q 215 532 215 512 l 215 505 q 215 474 232 438 l 232 438 q 222 416 195 383 q 165 352 151 341 q 99 297 54 281 q 34 314 17 362 q 0 416 0 463 l 0 470 q 0 554 49 629 q 61 646 86 674 q 118 704 141 718 q 172 738 216 755 q 294 782 372 782 z"},"o":{"x_min":0,"x_max":459,"ha":459,"o":"m 290 512 q 350 512 385 467 q 417 425 417 361 q 417 294 384 220 l 384 220 q 406 225 445 258 q 475 286 481 295 q 484 299 492 310 l 492 310 q 507 305 515 290 q 518 281 518 279 q 508 259 482 228 q 472 216 454 198 q 387 134 334 134 l 333 135 q 321 117 286 83 q 254 53 238 43 q 173 0 114 0 q 34 0 2 71 q -12 106 -12 151 q -12 220 23 303 q 44 349 71 387 q 83 403 111 433 q 193 512 290 512 z m 160 173 q 160 171 160 170 l 160 167 q 160 141 178 129 q 186 125 194 125 l 197 125 q 226 125 268 165 q 271 168 277 175 q 268 197 268 222 q 268 269 295 305 q 319 333 350 333 l 356 333 q 357 342 357 353 l 357 354 q 357 388 338 399 q 330 403 319 403 l 319 403 q 279 403 231 343 q 202 304 186 267 q 160 208 160 173 z"},"N":{"x_min":0,"x_max":896,"ha":896,"o":"m 372 782 q 445 782 525 756 q 571 743 619 733 q 635 730 651 728 l 651 727 q 628 673 628 596 l 628 584 q 628 482 672 286 q 675 277 675 275 l 675 275 q 767 498 793 558 q 831 644 871 706 q 913 768 949 781 q 985 781 1033 750 q 1069 726 1080 697 q 1065 690 1041 668 q 1017 645 1004 628 q 970 584 954 554 q 933 519 915 472 q 869 361 771 130 l 713 -7 l 713 -7 q 673 -7 613 24 q 594 35 572 53 q 554 70 550 77 q 538 93 536 109 q 556 150 556 226 l 556 230 q 556 234 556 237 q 556 239 556 243 l 556 245 q 556 295 542 461 l 542 462 l 542 462 q 455 252 426 185 q 396 118 354 51 q 331 16 297 -26 q 281 -45 246 -81 q 215 -110 193 -128 q 188 -128 186 -128 q 142 -128 79 -81 q 18 -31 2 18 q 37 33 88 70 q 110 86 155 127 q 204 177 221 199 q 269 257 306 317 q 363 408 405 514 q 461 648 464 658 q 428 669 397 669 l 391 669 q 337 669 287 638 q 275 630 255 610 q 228 578 220 545 q 215 526 215 512 l 215 505 q 215 474 232 438 l 232 438 q 222 415 189 377 q 156 344 148 338 q 123 318 106 308 q 77 289 54 281 q 34 314 17 362 q 0 416 0 463 l 0 470 q 0 554 49 629 q 61 646 86 673 q 110 697 129 709 q 155 727 174 737 q 206 752 248 765 q 313 782 372 782 z"},"+":{"x_min":0,"x_max":0,"ha":0,"o":""},"G":{"x_min":0,"x_max":928,"ha":928,"o":"m 765 781 q 855 781 883 729 q 891 711 891 692 l 891 690 q 891 633 830 594 q 778 566 723 566 l 717 566 q 717 566 716 566 q 715 566 715 566 l 710 566 q 662 566 582 590 q 582 590 575 592 q 527 537 504 502 q 467 448 445 397 q 414 322 414 266 l 414 260 q 414 203 446 173 q 466 155 494 155 q 547 155 614 217 q 645 248 655 262 q 690 305 716 348 q 745 395 769 443 q 798 500 834 554 q 851 579 873 603 q 920 655 969 655 q 1012 655 1042 621 q 986 586 951 527 q 920 476 885 387 q 884 386 762 91 q 710 -36 660 -112 q 637 -148 598 -194 q 585 -209 552 -243 q 521 -272 500 -288 l 492 -288 q 455 -288 397 -249 q 332 -200 311 -142 q 337 -129 369 -109 q 395 -92 436 -60 q 457 -41 485 -13 q 537 41 556 67 q 590 111 617 154 l 617 154 q 558 86 519 57 q 445 0 380 0 q 315 0 276 59 q 242 111 242 193 l 242 194 q 242 296 290 395 q 308 435 339 483 q 363 521 397 563 q 410 581 448 619 q 448 619 464 634 q 414 655 390 657 q 377 659 366 659 q 293 659 245 604 q 212 561 212 512 q 212 478 229 443 q 220 421 190 386 q 162 357 151 348 q 97 303 53 288 q 0 380 0 468 l 0 475 q 0 550 42 621 q 54 641 76 666 q 102 692 110 697 q 138 720 173 738 q 243 772 314 772 q 404 772 506 720 q 538 704 551 699 q 677 781 765 781 z m 649 661 q 700 645 732 645 l 738 645 q 785 645 804 679 q 807 685 807 689 q 807 702 785 707 q 778 708 771 708 l 764 708 q 726 708 671 677 q 656 667 649 661 z"},"q":{"x_min":0,"x_max":586,"ha":586,"o":"m 273 514 l 278 514 q 310 514 342 495 q 352 489 368 473 q 388 448 394 425 l 394 425 q 422 492 423 495 l 580 495 l 581 494 l 448 174 q 433 137 433 136 q 431 130 431 126 q 431 116 444 116 q 490 116 629 308 q 631 311 631 311 q 647 305 654 291 q 657 282 657 280 q 619 219 583 169 q 561 136 526 95 q 498 63 476 45 q 441 16 409 8 q 393 4 387 4 q 367 -74 367 -138 q 367 -170 374 -205 q 367 -227 323 -253 q 290 -272 256 -282 q 235 -288 222 -288 l 219 -288 q 218 -288 214 -268 q 206 -230 206 -191 l 206 -175 q 206 -89 240 36 q 255 86 272 130 l 271 130 q 257 110 221 72 q 193 46 172 32 q 129 4 95 4 l 90 4 q 44 4 13 49 q -13 92 -13 146 l -13 157 q -13 208 11 273 q 24 305 41 334 q 57 362 83 395 q 93 409 124 439 q 160 472 188 487 q 236 514 273 514 z m 154 180 q 154 149 174 139 q 178 138 181 138 q 202 138 245 178 q 281 212 297 234 q 319 259 334 281 q 367 359 370 368 q 367 377 361 386 q 345 405 325 405 l 322 405 q 281 405 229 346 q 206 317 190 290 q 154 225 154 180 z"},"d":{"x_min":0,"x_max":598,"ha":598,"o":"m 610 781 q 645 781 694 750 q 730 724 740 697 q 692 673 635 588 q 604 539 589 505 q 581 486 478 236 q 458 189 458 167 l 458 165 q 458 164 458 164 l 458 164 l 458 161 q 458 145 472 138 q 476 135 482 135 q 515 135 591 235 q 612 261 646 308 l 646 308 q 653 307 663 298 q 669 291 672 278 q 633 216 592 158 q 566 122 537 88 q 506 55 494 45 q 442 0 392 0 q 333 0 300 42 q 282 70 282 104 l 282 107 l 282 109 q 282 124 287 146 q 178 0 92 0 q 37 0 6 57 q -14 97 -14 144 l -14 153 q -14 213 18 289 q 33 323 58 360 q 71 380 98 412 q 127 443 140 453 q 162 470 180 481 q 232 513 274 513 l 276 513 q 312 513 346 491 q 379 469 394 425 l 395 420 q 397 423 420 481 q 493 657 544 724 q 579 770 610 781 z m 153 178 l 153 177 q 153 146 175 135 q 178 135 179 135 l 181 135 q 210 135 280 211 q 317 254 338 283 q 340 286 367 353 q 369 356 372 363 q 368 374 361 385 q 345 403 323 403 q 274 403 213 323 q 184 281 172 252 q 153 209 153 178 z"},"1":{"x_min":0,"x_max":0,"ha":0,"o":""},"5":{"x_min":0,"x_max":0,"ha":0,"o":""}}}
